<?xml version="1.0" encoding="utf-8"?>
<!-- Generator: Adobe Illustrator 24.1.3, SVG Export Plug-In . SVG Version: 6.00 Build 0)  -->
<svg version="1.1" id="Calque_1" xmlns="http://www.w3.org/2000/svg" xmlns:xlink="http://www.w3.org/1999/xlink" x="0px" y="0px"
	 viewBox="0 0 595.28 841.89" style="enable-background:new 0 0 595.28 841.89;" xml:space="preserve">
<style type="text/css">
	.st0{fill:#ED6D05;}
	.st1{fill:#FFFFFF;stroke:#FFFFFF;stroke-linecap:round;stroke-linejoin:round;stroke-miterlimit:10;}
	.st2{opacity:0.14;}
	.st3{opacity:0.02;}
</style>
<path class="st0" d="M422.71,490.86H185.37c-28.3,0-51.25-22.94-51.25-51.25V214.96c0-28.3,22.94-51.25,51.25-51.25h237.34
	c28.3,0,51.25,22.94,51.25,51.25v224.65C473.96,467.91,451.02,490.86,422.71,490.86z"/>
<path class="st1" d="M271.35,243.46H241.8v-30.51c0-3.95-3.1-7.16-6.93-7.16s-6.93,3.2-6.93,7.16v30.51h-29.55
	c-3.83,0-6.93,3.2-6.93,7.16s3.1,7.16,6.93,7.16h29.55v30.51c0,3.95,3.1,7.16,6.93,7.16s6.93-3.2,6.93-7.16v-30.51h29.55
	c3.83,0,6.93-3.2,6.93-7.16S275.18,243.46,271.35,243.46z"/>
<path class="st2" d="M417.96,455.28h-76.32c-17.1,0-30.96-13.86-30.96-30.96V369.6c0-17.1,13.86-30.96,30.96-30.96h76.32
	c17.1,0,30.96,13.86,30.96,30.96v54.72C448.92,441.42,435.06,455.28,417.96,455.28z"/>
<path class="st3" d="M417.96,455.28h-76.32c-17.1,0-30.96-13.86-30.96-30.96V369.6c0-17.1,13.86-30.96,30.96-30.96h76.32
	c17.1,0,30.96,13.86,30.96,30.96v54.72C448.92,441.42,435.06,455.28,417.96,455.28z"/>
<path class="st1" d="M412.59,256.8h-67.05c-3.32,0-6.01-2.69-6.01-6.01v-1.37c0-3.32,2.69-6.01,6.01-6.01h67.05
	c3.32,0,6.01,2.69,6.01,6.01v1.37C418.6,254.11,415.91,256.8,412.59,256.8z"/>
<path class="st1" d="M412.18,388.71h-63.32c-3.32,0-6.01-2.69-6.01-6.01v0c0-3.32,2.69-6.01,6.01-6.01h63.32
	c3.32,0,6.01,2.69,6.01,6.01v0C418.19,386.02,415.5,388.71,412.18,388.71z"/>
<path class="st1" d="M412.18,416.03h-63.32c-3.32,0-6.01-2.69-6.01-6.01v0c0-3.32,2.69-6.01,6.01-6.01h63.32
	c3.32,0,6.01,2.69,6.01,6.01v0C418.19,413.34,415.5,416.03,412.18,416.03z"/>
<path class="st1" d="M244.52,393.93l22.28-22.78c2.76-2.82,2.21-6.94-1.23-9.2h0c-3.44-2.26-8.46-1.81-11.22,1.01l-20.06,20.51
	l-20.06-20.51c-2.76-2.82-7.78-3.27-11.22-1.01c-3.44,2.26-3.99,6.38-1.23,9.2l22.28,22.78l-22.28,22.78
	c-2.76,2.82-2.21,6.94,1.23,9.2c3.44,2.26,8.46,1.81,11.22-1.01l20.06-20.51l20.06,20.51c2.76,2.82,7.78,3.27,11.22,1.01h0
	c3.44-2.26,3.99-6.38,1.23-9.2L244.52,393.93z"/>
</svg>
